<?xml version="1.0" encoding="UTF-8" standalone="no"?>
<!-- Created with Inkscape (http://www.inkscape.org/) -->

<svg
   width="77.981979mm"
   height="102.65834mm"
   viewBox="0 0 77.981979 102.65834"
   version="1.1"
   id="svg3609"
   xml:space="preserve"
   xmlns:inkscape="http://www.inkscape.org/namespaces/inkscape"
   xmlns:sodipodi="http://sodipodi.sourceforge.net/DTD/sodipodi-0.dtd"
   xmlns="http://www.w3.org/2000/svg"
   xmlns:svg="http://www.w3.org/2000/svg"><sodipodi:namedview
     id="namedview3611"
     pagecolor="#ffffff"
     bordercolor="#000000"
     borderopacity="0.25"
     inkscape:showpageshadow="2"
     inkscape:pageopacity="0.0"
     inkscape:pagecheckerboard="0"
     inkscape:deskcolor="#d1d1d1"
     inkscape:document-units="mm"
     showgrid="false" /><defs
     id="defs3606" /><g
     inkscape:label="Layer 1"
     inkscape:groupmode="layer"
     id="layer1"
     transform="translate(191.45751,79.968809)"><path
       style="fill:#000000;stroke-width:1"
       d="m -191.45751,21.983971 c 0,-0.7013 0.23518,-0.70555 38.98194,-0.70555 38.74676,0 38.98194,0.004 38.98194,0.70555 0,0.7013 -0.23518,0.70556 -38.98194,0.70556 -38.74676,0 -38.98194,-0.004 -38.98194,-0.70556 z m 0,-12.8763905 v -3.35139 h 1.94028 c 1.06715,0 1.94027,0.15875 1.94027,0.35278 0,0.19403 -0.635,0.35278 -1.41111,0.35278 -1.32595,0 -1.41111,0.0625 -1.41111,1.03598 0,0.91094 0.13839,1.04933 1.14653,1.14653 0.63059,0.0608 1.14653,0.26929 1.14653,0.46332 0,0.19403 -0.51594,0.40252 -1.14653,0.46333 -1.00814,0.0972 -1.14653,0.23558 -1.14653,1.1465205 0,0.97346 0.0852,1.03598 1.41111,1.03598 0.77611,0 1.41111,0.15875 1.41111,0.35278 0,0.19403 -0.87312,0.35278 -1.94027,0.35278 h -1.94028 z m 7.05555,0 c 0,-4.20798 0.40316,-4.32957 2.73122,-0.82369 l 1.67851,2.5277105 0.10365,-2.5277105 c 0.0792,-1.93041 0.22503,-2.5277 0.61736,-2.5277 0.41371,0 0.51371,0.65238 0.51371,3.35139 0,2.9621005 -0.0717,3.3497205 -0.61736,3.3369905 -0.37624,-0.009 -1.23741,-1.00773 -2.20486,-2.5576405 l -1.5875,-2.54324 -0.10365,2.55764 c -0.0793,1.9566205 -0.22437,2.5576405 -0.61737,2.5576405 -0.41371,0 -0.51371,-0.65237 -0.51371,-3.3513905 z m 10.23056,0.35278 c 0,-2.96333 -0.0104,-2.99861 -0.88195,-2.99861 -0.48507,0 -0.88194,-0.15875 -0.88194,-0.35278 0,-0.199 0.99954,-0.35278 2.29306,-0.35278 1.29351,0 2.29305,0.15378 2.29305,0.35278 0,0.19403 -0.39687,0.35278 -0.88194,0.35278 -0.87157,0 -0.88195,0.0353 -0.88195,2.99861 0,2.4302505 -0.1003,2.9986105 -0.52916,2.9986105 -0.42887,0 -0.52917,-0.56836 -0.52917,-2.9986105 z m 5.64444,-0.35278 v -3.35139 h 1.94028 c 1.06715,0 1.94028,0.15875 1.94028,0.35278 0,0.19403 -0.635,0.35278 -1.41111,0.35278 -1.33272,0 -1.41111,0.0588 -1.41111,1.05833 0,0.97434 0.098,1.05833 1.23472,1.05833 0.86234,0 1.23472,0.15959 1.23472,0.52917 0,0.36958 -0.37238,0.52917 -1.23472,0.52917 -1.13673,0 -1.23472,0.084 -1.23472,1.0583305 0,0.99954 0.0784,1.05833 1.41111,1.05833 0.77611,0 1.41111,0.15875 1.41111,0.35278 0,0.19403 -0.87313,0.35278 -1.94028,0.35278 h -1.94028 z m 7.05556,0 v -3.35139 h 1.5875 c 1.11713,0 1.79655,0.20905 2.29305,0.70556 0.88232,0.88232 0.87974,1.09453 -0.0274,2.24773 l -0.73294,0.93178 0.73294,1.1859105 c 0.85048,1.37611 0.89613,1.6318 0.29135,1.6318 -0.24286,0 -0.82055,-0.71437 -1.28374,-1.5875 -0.46319,-0.8731205 -1.05823,-1.5875005 -1.32231,-1.5875005 -0.33388,0 -0.48014,0.48361 -0.48014,1.5875005 0,1.17593 -0.1372,1.5875 -0.52917,1.5875 -0.43324,0 -0.52917,-0.60756 -0.52917,-3.3513905 z m 2.64733,-0.52973 c 1.3968,-0.53107 1.10106,-1.90143 -0.44247,-2.05026 -1.0997,-0.10603 -1.14653,-0.0592 -1.14653,1.14653 0,1.35358 0.16258,1.44605 1.589,0.90373 z m 5.46656,0.52973 v -3.35139 h 1.70921 c 1.20783,0 1.88048,0.18925 2.29305,0.64514 1.34194,1.48283 0.13207,3.5882 -2.06199,3.5882 -1.17592,0 -1.23472,0.0588 -1.23472,1.2347205 0,0.6791 -0.15875,1.23472 -0.35278,1.23472 -0.21042,0 -0.35277,-1.35231 -0.35277,-3.3513905 z m 2.75294,-0.0509 c 0.66204,-0.17732 0.79281,-0.42161 0.70555,-1.3181 -0.0968,-0.99411 -0.23492,-1.11101 -1.43002,-1.20992 -1.29034,-0.1068 -1.32292,-0.08 -1.32292,1.08773 0,1.68562 0.312,1.9051 2.04739,1.44029 z m 5.00817,0.0509 v -3.35139 h 1.4343 c 0.78887,0 1.74137,0.16434 2.11667,0.36519 0.91555,0.48999 0.90896,2.25831 -0.0108,2.90254 -0.68245,0.47801 -0.67973,0.50528 0.17639,1.7651805 1.002,1.47457 1.04754,1.66987 0.38941,1.66987 -0.26408,0 -0.85912,-0.71437 -1.32231,-1.5875 -0.46319,-0.8731205 -1.04088,-1.5875005 -1.28374,-1.5875005 -0.28817,0 -0.44158,0.55152 -0.44158,1.5875005 0,1.17593 -0.13719,1.5875 -0.52917,1.5875 -0.43323,0 -0.52917,-0.60756 -0.52917,-3.3513905 z m 3.29824,-0.87139 c 0.16479,-0.16077 0.19378,-0.62579 0.0644,-1.03338 -0.16852,-0.53097 -0.52851,-0.74106 -1.26977,-0.74106 -0.95309,0 -1.03456,0.10024 -1.03456,1.27296 0,1.21159 0.0468,1.26142 0.97014,1.03338 0.53358,-0.13178 1.10497,-0.37114 1.26977,-0.5319 z m 4.81565,0.87139 c 0,-1.99907 0.14235,-3.35139 0.35277,-3.35139 0.21043,0 0.35278,1.35232 0.35278,3.35139 0,1.9990805 -0.14235,3.3513905 -0.35278,3.3513905 -0.21042,0 -0.35277,-1.35231 -0.35277,-3.3513905 z m 4.85069,2.9703605 c -0.63479,-0.36974 -0.86028,-1.38286 -0.30778,-1.38286 0.17027,0 0.51394,0.24623 0.7637,0.54718 0.27644,0.33309 0.87998,0.50563 1.54251,0.44098 0.87941,-0.0858 1.08838,-0.26648 1.08838,-0.94095 0,-0.66378 -0.31759,-0.9527905 -1.55067,-1.4111105 -1.93794,-0.72032 -2.43936,-1.43227 -1.8774,-2.66565 0.3332,-0.73127 0.66214,-0.90934 1.67981,-0.90934 1.50721,0 2.6302,0.53248 2.6302,1.24714 0,0.66682 -0.49948,0.66096 -1.05833,-0.0124 -0.54415,-0.65566 -1.8978,-0.6888 -2.42027,-0.0593 -0.55591,0.66982 0.17164,1.47121 1.80562,1.98885 1.72509,0.54651 2.27431,1.5190705 1.51353,2.6801705 -0.43218,0.65958 -0.86676,0.8558 -1.87715,0.84756 -0.72313,-0.006 -1.5926,-0.17254 -1.93215,-0.37031 z m 7.49653,-2.9703605 v -3.35139 h 1.94028 c 1.06715,0 1.94027,0.15875 1.94027,0.35278 0,0.19403 -0.635,0.35278 -1.41111,0.35278 -1.32595,0 -1.41111,0.0625 -1.41111,1.03598 0,0.91094 0.13839,1.04933 1.14653,1.14653 0.63059,0.0608 1.14653,0.26929 1.14653,0.46332 0,0.19403 -0.51594,0.40252 -1.14653,0.46333 -1.00814,0.0972 -1.14653,0.23558 -1.14653,1.1465205 0,0.97346 0.0852,1.03598 1.41111,1.03598 0.77611,0 1.41111,0.15875 1.41111,0.35278 0,0.19403 -0.87312,0.35278 -1.94027,0.35278 h -1.94028 z m 7.32014,2.9703605 c -0.6348,-0.36974 -0.86028,-1.38286 -0.30778,-1.38286 0.17027,0 0.51393,0.24623 0.7637,0.54718 0.27643,0.33309 0.87998,0.50563 1.5425,0.44098 0.88407,-0.0863 1.08838,-0.26511 1.08838,-0.95266 0,-0.6671 -0.29112,-0.9472305 -1.37404,-1.3221505 -2.40631,-0.83308 -2.98684,-1.89024 -1.68499,-3.06839 1.12341,-1.01667 3.94098,-0.54246 3.94098,0.66329 0,0.68566 -0.57441,0.66181 -0.84178,-0.035 -0.14581,-0.37997 -0.56936,-0.51724 -1.36066,-0.44098 -0.93832,0.0904 -1.14895,0.26225 -1.14895,0.93728 0,0.63945 0.3002,0.92975 1.32626,1.28249 2.40767,0.82772 3.03105,1.9530205 1.73277,3.1279505 -0.71609,0.64805 -2.72198,0.7587 -3.67639,0.20281 z M -185.10751,-8.1785295 V -18.938249 h -3.175 -3.175 v -1.5875 -1.5875 h 8.13417 8.13417 l -0.10847,1.4993 -0.10848,1.49931 -3.08681,0.10193 -3.0868,0.10193 v 10.7459795 10.74599 h -1.76389 -1.76389 z m 20.46111,-1.5875 V -22.113249 l 4.6743,0.005 c 7.14645,0.008 10.29039,1.07919 12.62288,4.29909 2.98488,4.12051 2.89264,12.3260395 -0.18391,16.3595995 -2.51937,3.30307 -4.62852,4.03025 -11.68957,4.03025 h -5.4237 z m 11.92741,8.40545 c 2.9586,-1.46852 4.12036,-4.20182 3.87256,-9.1110095 -0.16685,-3.30518 -0.8687,-5.1034 -2.65325,-6.79792 -1.37978,-1.31017 -2.82079,-1.66874 -6.7062,-1.66874 h -3.26552 v 9.1134195 c 0,5.01239 0.11906,9.23764001 0.26458,9.38945001 0.14552,0.15181 1.74278,0.19041 3.54945,0.0858 2.44982,-0.14188 3.70522,-0.39889 4.93838,-1.01098001 z m 17.00036,3.72826 c 0,-0.11743 2.01248,-5.68052 4.47218,-12.36243 l 4.47216,-12.1489295 2.11067,0.10341 2.11067,0.10341 3.63963,9.87777 c 2.0018,5.4327795 4.03678,10.9493395 4.52218,12.25902951 l 0.88255,2.38124999 h -1.89455 c -1.73474,0 -1.91353,-0.0756 -2.11952,-0.89631 -0.12372,-0.49298 -0.54921,-1.76297999 -0.94553,-2.82222 l -0.72057,-1.92591 h -5.59375 -5.59375 l -0.72058,1.92591 c -0.39632,1.05924001 -0.82181,2.32924 -0.94553,2.82222 -0.20257,0.80708 -0.39676,0.89631 -1.95061,0.89631 -0.9491,0 -1.72565,-0.0961 -1.72565,-0.21351 z m 13.28338,-14.6031595 c -1.17604,-3.29847 -2.2404,-5.99722 -2.36525,-5.99722 -0.12485,0 -1.17776,2.69875 -2.3398,5.99722 l -2.11281,5.9972295 h 4.47805 4.47805 z m -49.26671,-15.96839 c -0.48507,-0.23967 -1.19533,-1.11046 -1.57837,-1.93508 -0.67218,-1.4471 -0.75318,-1.4993 -2.32657,-1.4993 -2.47597,0 -2.79897,-0.55409 -2.79243,-4.79028 0.003,-1.925 0.12526,-3.68851 0.27176,-3.9189 0.36643,-0.57627 2.02571,-1.1686 3.27358,-1.1686 0.91522,0 1.03537,-0.12281 1.03537,-1.05834 0,-0.94661 -0.11458,-1.05833 -1.08547,-1.05833 -1.39993,0 -3.01507,-1.5792 -3.32953,-3.25545 -0.29297,-1.56167 0.51052,-3.23441 1.89837,-3.9521 0.97303,-0.50317 1.00545,-0.61318 1.23719,-4.19757 0.29602,-4.57871 0.91752,-7.0806 2.60016,-10.4671 2.39201,-4.8142 7.90418,-9.43545 13.07842,-10.9646 1.07395,-0.31739 1.67871,-0.75161 2.0519,-1.47328 0.67165,-1.29883 2.40454,-2.02601 4.82804,-2.02601 2.59329,0 3.99214,0.54825 4.53647,1.77796 0.33767,0.76285 0.88989,1.15815 2.22176,1.59041 3.37813,1.09637 5.95448,2.72859 8.86226,5.61458 4.60779,4.57326 6.82456,9.97287 6.83874,16.65786 0.005,2.55225 0.0861,2.91201 0.69619,3.10566 1.27979,0.40619 2.48494,2.23526 2.48494,3.77143 0,1.84466 -1.8052,3.81821 -3.4925,3.81821 -0.96918,0 -1.09361,0.11532 -1.09361,1.01345 0,0.96035 0.0938,1.02246 1.79023,1.18547 2.65432,0.25505 2.95036,0.71803 3.09252,4.83647 0.10886,3.15375 0.0504,3.55372 -0.61736,4.22144 -0.5516,0.5516 -1.18243,0.73762 -2.5015,0.73762 -1.60034,0 -1.76389,0.0745 -1.76389,0.80344 0,2.25576 -1.92374,3.07321 -7.23195,3.0731 -6.85214,-1.5e-4 -9.79033,-1.09892 -12.38293,-4.63075 -0.70508,-0.96051 -1.40404,-1.69969 -1.55324,-1.64262 -0.14921,0.0571 -0.81051,0.81815 -1.46957,1.69127 -1.71998,2.27867 -4.04304,3.72399 -6.74055,4.19374 -3.05155,0.53141 -9.72105,0.4983 -10.83843,-0.0538 z m 12.86989,-2.05726 c 1.42054,-0.66773 2.20459,-1.39842 4.65411,-4.33736 1.26996,-1.5237 2.30306,-1.23227 4.15264,1.1714 1.17748,1.53022 2.12414,2.33517 3.52655,2.99861 1.80257,0.85276 2.24399,0.90689 7.3945,0.90689 5.0957,0 5.50351,-0.0486 5.85085,-0.69763 0.23366,-0.43659 0.3373,-3.04363 0.277,-6.96736 l -0.0964,-6.26973 h -19.57914 -19.57916 v 6.6279 c 0,5.5078 0.0894,6.68435 0.52916,6.96196 0.29104,0.18373 2.95184,0.33649 5.91288,0.33946 4.73758,0.005 5.57252,-0.0834 6.95701,-0.73414 z m 18.17456,-2.18254 c 0,-0.2774 0.98216,-2.27341 2.18259,-4.43558 1.99535,-3.59399 2.75189,-4.44178 3.24773,-3.6395 0.29814,0.4824 -4.19352,8.34112 -4.83841,8.46539 -0.33121,0.0638 -0.59191,-0.10808 -0.59191,-0.39031 z m -2.31597,-2.47846 c -0.28313,-0.73783 2.74538,-5.888 3.46249,-5.88818 0.89988,-2.4e-4 0.78182,0.4894 -0.86169,3.57394 -1.40289,2.63293 -2.20471,3.34641 -2.6008,2.31424 z m -30.84514,-1.47862 v -3.35139 h -1.5875 -1.5875 v 3.1162 c 0,1.71391 0.10583,3.22204 0.23518,3.35139 0.12935,0.12935 0.84373,0.23518 1.5875,0.23518 h 1.35232 z m 45.69596,2.55025 c 0.11059,-0.44061 0.1533,-1.90905 0.0949,-3.26319 l -0.10615,-2.46206 -1.6757,-0.10753 -1.67569,-0.10752 v 3.37072 3.37071 h 1.58078 c 1.34943,0 1.6102,-0.11724 1.78185,-0.80113 z m -0.91879,-12.12283 c 0.94354,-1.19952 0.92877,-2.38667 -0.0409,-3.29007 -0.76051,-0.70853 -1.11422,-0.7193 -23.6161,-0.7193 h -22.84405 l -0.54918,0.78405 c -0.30204,0.43123 -0.54917,1.29535 -0.54917,1.92027 0,2.31935 -0.91887,2.23457 24.21817,2.23457 h 22.65007 z m -27.62299,-8.15451 c -0.11295,-1.50371 -0.29171,-5.6709 -0.39724,-9.26042 -0.29401,-10.00005 -0.49077,-11.99449 -1.18324,-11.99416 -0.71719,3.4e-4 -4.70569,1.86563 -6.07667,2.84186 l -1.01068,0.71966 -0.098,4.83368 c -0.0815,4.01785 -0.18735,4.83369 -0.6272,4.83369 -0.43104,0 -0.56188,-0.78228 -0.70556,-4.21829 l -0.17639,-4.21829 -1.51085,1.74884 c -1.80603,2.09052 -3.74473,5.89359 -4.48107,8.79033 -0.29396,1.15642 -0.53447,3.57736 -0.53447,5.37986 v 3.27727 h 8.50339 8.50338 z m 6.62904,1.94028 c 0.0883,-0.43656 0.34836,-6.32895 0.57789,-13.09419 0.35149,-10.35978 0.34114,-12.34872 -0.0656,-12.60641 -0.26564,-0.16828 -1.7077,-0.30839 -3.20459,-0.31136 -2.25689,-0.004 -2.77928,0.10235 -3.05933,0.62563 -0.21755,0.40649 -0.16261,4.89407 0.1544,12.6118 0.27066,6.58943 0.49642,12.33797 0.50169,12.77453 0.009,0.74643 0.15639,0.79375 2.4723,0.79375 2.27118,0 2.47521,-0.0617 2.62328,-0.79375 z m 18.45554,-2.99861 c -0.29845,-5.81971 -1.73948,-9.67638 -5.13204,-13.73496 -0.70004,-0.83747 -1.39793,-1.52268 -1.55087,-1.52268 -0.15294,0 -0.27808,1.81625 -0.27808,4.03612 0,2.5808 -0.14142,4.12353 -0.39222,4.27853 -0.76866,0.47506 -1.00816,-0.79273 -1.01349,-5.36492 l -0.005,-4.635 -2.73403,-1.41178 c -1.50371,-0.77648 -3.2254,-1.51576 -3.82597,-1.64285 l -1.09196,-0.23108 -0.22738,5.92507 c -0.12506,3.2588 -0.33264,8.66351 -0.46128,12.01049 l -0.2339,6.08542 h 8.57055 8.57056 z"
       id="path5508"
       inkscape:export-filename="TDA-logo-black.svg"
       inkscape:export-xdpi="96"
       inkscape:export-ydpi="96" /></g></svg>
